<svg width="375" height="194" viewBox="0 0 375 194" fill="none" xmlns="http://www.w3.org/2000/svg">
<path d="M314.754 1.01469C313.43 1.57008 311.849 2.33908 311.294 2.72359C309.884 3.62076 306.765 8.02115 304.886 11.738C303.518 14.4295 303.006 14.9849 299.503 17.4628C297.367 18.958 295.529 20.3679 295.401 20.5388C295.273 20.7524 293.863 19.8979 292.283 18.6163C282.328 10.6699 270.58 4.90242 260.54 2.93719C257.464 2.38181 250.073 2.42453 246.826 3.02264C240.332 4.26158 234.608 9.34554 234.565 13.8741C234.565 14.5576 237.171 22.7176 240.375 31.9883L246.185 48.8209L244.391 52.7086C240.418 61.2958 238.709 66.2515 238.495 69.6693L238.324 72.9589L240.161 74.9669C242.597 77.5729 244.348 78.4274 249.646 79.4954C261.864 81.9306 267.119 83.7677 270.58 86.7582C272.759 88.6807 278.953 97.1397 278.483 97.6096C278.398 97.6951 274.211 96.5416 269.17 95.0463C257.806 91.5858 248.492 89.407 242.597 88.8089C238.453 88.3817 237.726 88.4244 233.881 89.2788C218.886 92.6539 210.341 98.0796 206.582 106.496C205.044 109.999 204.617 112.392 204.617 117.091C204.617 123.158 205.257 125.934 207.863 131.104C215.596 146.484 226.405 154.131 240.546 154.217L244.605 154.259L246.399 156.524C248.877 159.685 254.089 163.786 256.994 164.854C259.386 165.752 263.701 167.033 267.418 167.93C268.999 168.315 269.213 168.486 268.7 168.956C268.358 169.255 257.336 178.568 244.22 189.633C219.527 210.439 219.954 210.097 208.932 216.078C203.677 218.898 193.808 223.298 186.502 226.033C174.369 230.604 161.723 233.808 148.693 235.645C142.071 236.542 123.145 236.927 117.591 236.243C93.197 233.253 77.5607 225.221 70.7251 212.276C68.3327 207.705 67.3928 204.159 67.3501 199.502L67.3073 195.444L69.4435 195.144C70.6397 194.931 76.6635 194.205 82.901 193.478C98.6655 191.684 105.501 190.445 114.345 187.924C135.407 181.901 147.668 174.766 152.581 165.666C153.863 163.231 154.033 162.633 154.033 159.557C154.033 155.156 152.965 152.892 149.163 149.09C145.959 145.886 141.772 143.621 136.945 142.383C132.801 141.357 122.163 141.357 116.908 142.425C109.474 143.878 97.5547 149.004 90.0356 153.96C76.4926 162.889 67.7346 176.219 65.5984 191.043C65.4276 192.197 65.0858 193.094 64.7867 193.094C64.5304 193.094 62.7788 193.265 60.899 193.478C59.0192 193.692 55.0888 194.119 52.141 194.375C43.1693 195.187 32.7451 197.281 25.6959 199.673C22.1927 200.912 14.8445 204.714 10.914 207.32C0.447062 214.369 -8.26827 223.726 -15.531 235.773C-18.7779 241.071 -22.2812 248.163 -21.9821 248.633C-21.8112 248.889 -21.3413 249.06 -20.914 249.06C-20.2732 249.06 -19.5469 248.035 -18.0944 245.087C-10.4471 229.792 0.404339 216.976 12.3238 209.157C17.1942 205.953 23.7734 202.706 28.2592 201.296C33.8558 199.502 43.8101 197.494 49.6631 196.939C52.3118 196.682 56.1141 196.298 58.1221 196.084C60.13 195.828 62.4797 195.657 63.3769 195.657H64.9576L64.9149 199.16C64.8295 207.833 69.6998 217.745 77.1335 223.982C85.0798 230.689 96.1021 235.09 111.482 237.824C117.506 238.892 119.087 239.02 128.187 239.02C152.495 238.977 173.771 234.449 197.396 224.196C202.48 222.017 213.802 216.249 218.843 213.301C220.509 212.362 232.771 202.322 247.082 190.231L272.417 168.87L276.518 168.614C281.431 168.358 286.6 166.691 290.232 164.299C295.615 160.71 304.886 149.004 310.995 138.153C312.875 134.863 313.43 134.265 321.505 127.472C330.434 119.868 332.911 117.219 333.851 114.058C334.919 110.384 333.339 108.461 328.981 108.162C326.503 107.991 326.247 108.077 324.025 109.572C320.906 111.751 319.112 114.314 317.232 119.398C316.335 121.748 314.626 125.806 313.387 128.37L311.166 133.112L292.026 149.304C281.474 158.232 272.588 165.709 272.246 165.922C271.349 166.435 266.393 165.495 260.967 163.786C257.635 162.718 255.712 161.821 253.918 160.411C251.227 158.446 247.382 154.516 247.382 153.832C247.382 153.618 248.193 153.319 249.219 153.149C254.431 152.251 268.401 147.509 289.249 139.477C305.954 133.026 308.175 131.702 306.125 129.438C305.569 128.797 304.971 128.797 298.264 129.48C282.157 131.104 267.717 130.89 256.78 128.925C248.877 127.472 247.98 127.472 245.245 128.882C243.28 129.95 242.725 130.506 241.614 132.642C240.375 135.034 240.332 135.376 240.332 140.289C240.375 144.86 240.503 145.843 241.529 148.492C242.169 150.158 242.682 151.653 242.682 151.824C242.682 152.337 238.111 152.038 234.351 151.269C223.799 149.09 215.383 141.528 209.359 128.925C206.155 122.132 205.984 113.075 208.932 107.179C212.947 99.2758 220.039 94.9182 234.693 91.4576C241.016 89.9624 250.244 91.6713 271.861 98.2932L280.748 100.985L283.525 105.556C287.754 112.605 291.898 115.809 299.075 117.689C302.579 118.586 304.971 118.501 307.193 117.347C308.901 116.536 309.115 116.237 309.072 115.04C308.944 112.135 304.928 108.803 297.025 104.958C294.12 103.548 289.719 101.711 287.199 100.814L282.627 99.2331L278.868 93.6365C274.126 86.5019 271.776 84.1094 267.803 82.2296C264.513 80.6917 257.848 78.7691 250.372 77.2739C245.544 76.334 244.135 75.6504 241.87 73.3007C240.503 71.8909 240.418 71.6773 240.674 69.5412C240.93 66.8069 242.682 62.0648 246.185 54.5456L248.749 49.0345L242.682 31.5611C235.846 11.738 235.975 12.6779 239.35 9.30281C241.571 7.08125 244.69 5.71414 248.791 5.15875C253.363 4.51791 255.499 4.56064 260.241 5.37236C268.785 6.82492 277.885 11.0544 287.54 18.0181C293.949 22.6321 293.393 21.9486 292.154 23.572C290.146 26.1781 290.189 26.3917 293.906 31.3047C301.938 42.028 306.723 50.487 311.166 61.723C315.523 72.8308 318.685 85.9892 319.796 97.6096C320.137 101.54 320.351 102.095 321.291 102.095C322.231 102.095 324.41 98.4214 326.375 93.5083C331.587 80.5208 330.733 66.7642 323.982 53.1785C320.223 45.7021 317.232 41.7717 308.816 33.4836C304.501 29.2541 300.058 24.9819 298.947 23.9993L296.854 22.2477L299.374 20.4106C300.742 19.3853 302.621 18.1036 303.476 17.5055C304.715 16.6938 305.655 15.4121 307.235 12.2934C311.166 4.64609 314.285 2.38181 320.65 2.33908C323.683 2.33908 324.41 2.50998 327.272 3.87709C335.646 7.89297 341.029 17.8473 343.293 33.8254C343.677 36.4742 344.105 42.8825 344.233 48.0519C344.874 74.4115 340.516 90.8595 329.75 102.395C327.144 105.214 326.973 105.556 327.827 106.282C329.152 107.393 350.855 109.615 355.426 109.145C359.656 108.717 365.039 107.35 367.559 106.111C371.96 103.89 375.463 99.4894 374.95 96.7552C374.395 93.8074 370.678 92.3121 367.345 93.6792C366.107 94.1919 365.722 94.6191 365.508 95.7726C365.167 97.6524 365.893 99.6603 366.918 99.4467C367.388 99.3613 367.687 98.8486 367.73 98.0369C367.73 97.3106 367.815 96.4989 367.815 96.1998C367.858 95.5163 371.361 95.5163 372.045 96.1998C373.028 97.1824 372.558 98.6777 370.592 100.814C367.004 104.659 360.339 106.795 352.051 106.795C347.693 106.795 336.5 105.77 334.962 105.257C334.578 105.129 335.646 104.445 337.525 103.633C344.446 100.6 353.973 95.3026 356.964 92.782C358.887 91.2013 360.852 88.2108 361.407 86.1174C362.304 82.5714 360.339 79.2818 358.032 80.4353C356.622 81.1616 355.939 82.6142 356.28 84.2803C356.708 86.2455 358.203 86.2028 358.374 84.2376C358.459 83.5113 358.716 82.8705 358.972 82.8705C359.271 82.8705 359.356 83.5968 359.186 84.8357C358.758 88.8089 355.682 91.5858 345.856 96.9261C340.644 99.7885 333.296 103.121 332.997 102.822C332.869 102.694 333.723 101.412 334.834 99.9166C340.815 92.013 344.745 80.2644 346.113 66.4651C346.796 59.416 346.369 37.9267 345.472 32.2446C343.549 20.496 340.089 12.2506 334.706 6.44041C333.424 5.03058 331.544 3.40714 330.562 2.85175C325.478 -0.138809 319.326 -0.822357 314.754 1.01469ZM300.827 28.8269C314.199 40.8745 320.693 49.5899 324.623 60.7404C326.589 66.2515 327.315 70.3956 327.315 76.0349C327.315 82.0588 326.332 86.9718 323.982 92.9102C322.103 97.6951 322.316 97.9514 320.906 88.8516C317.617 67.405 308.731 46.5566 295.786 29.9804C294.12 27.887 293.18 26.2635 293.351 25.9218C293.906 24.9391 294.974 23.9138 295.273 23.9993C295.444 24.0847 297.922 26.2208 300.827 28.8269ZM290.146 104.488C292.838 105.556 296.726 107.308 298.819 108.418C302.493 110.341 306.765 113.801 306.765 114.827C306.765 115.083 306.039 115.51 305.099 115.767C303.091 116.279 300.528 115.852 296.085 114.229C293.351 113.203 292.453 112.605 289.89 110.042C287.156 107.265 283.994 102.523 284.892 102.523C285.062 102.523 287.455 103.42 290.146 104.488ZM331.459 111.153C333.381 112.733 330.263 117.176 322.957 123.243C315.053 129.779 315.523 129.609 317.19 125.678C318.001 123.798 319.155 120.893 319.753 119.184C321.077 115.51 322.872 113.118 325.563 111.409C327.187 110.384 327.742 110.213 329.195 110.469C330.134 110.597 331.16 110.939 331.459 111.153ZM256.353 131.147C259.045 131.617 263.274 132.172 265.709 132.428C272.032 133.026 287.54 132.941 294.803 132.215C302.835 131.403 302.664 131.403 299.93 132.685C291.086 136.829 258.831 148.406 250.671 150.372C245.459 151.611 245.502 151.653 244.22 148.535C241.742 142.639 242.127 133.966 244.989 131.617C246.143 130.634 248.834 129.865 250.158 130.121C250.885 130.207 253.662 130.719 256.353 131.147ZM307.15 140.204C306.125 142.169 301.681 148.577 298.905 152.08C294.803 157.25 291.215 160.924 288.395 162.718C285.447 164.641 280.192 166.264 277.672 166.093L275.877 165.965L291.642 152.636C300.314 145.288 307.449 139.307 307.534 139.264C307.577 139.264 307.406 139.691 307.15 140.204ZM136.475 144.818C148.266 147.808 154.375 156.267 150.573 164.299C146.643 172.673 133.484 180.149 112.593 186.045C106.569 187.711 102.724 188.523 96.5721 189.42C91.7445 190.103 75.6809 192.026 70.6397 192.496L67.6064 192.752L68.1618 189.761C71.1951 173.869 80.9357 161.223 96.9993 152.422C100.631 150.414 108.107 147.253 111.909 146.099C119.258 143.835 130.451 143.28 136.475 144.818Z" fill="#FF8C00"/>
</svg>
