<svg width="23" height="23" viewBox="0 0 23 23" fill="none" xmlns="http://www.w3.org/2000/svg">
<path d="M15.1011 1.50574C15.0935 1.67167 15.0791 1.87073 15.0405 2.08972C14.9277 2.7295 14.646 3.52136 13.98 4.18738C13.2911 4.87613 12.6412 5.14681 12.1821 5.25183C12.0612 5.27949 11.952 5.29427 11.8579 5.30359C11.8639 5.14151 11.8795 4.9415 11.9194 4.71863C12.0262 4.12338 12.2908 3.38438 12.9175 2.75769C13.5707 2.10443 14.2494 1.77249 14.7603 1.60339C14.8849 1.56214 14.9995 1.52981 15.1011 1.50574Z" fill="white" stroke="white" stroke-width="0.953052"/>
<path d="M11.5553 6.99506C10.5015 6.98785 9.85419 6.07797 8.05955 6.07797C6.44474 6.07797 4.82597 7.11983 4.13766 8.12793C3.45254 9.13133 2.85913 10.2318 2.85913 12.4652C2.85913 14.6986 3.93447 18.5396 6.57875 21.1398C7.03159 21.5851 7.63105 21.9198 8.31491 21.9405C9.54489 21.9777 10.3001 21.057 11.8538 21.057C13.4074 21.057 13.875 21.9405 15.2776 21.9405C15.9154 21.9405 16.6427 21.65 17.3491 20.8988C18.2554 19.935 19.38 18.0993 19.9529 16.3386C19.9529 16.3386 17.0842 15.2307 17.1189 12.0372C17.1477 9.39027 19.3954 8.08835 19.3954 8.08835C19.3954 8.08835 18.0827 5.99524 15.2919 5.99524C13.3643 6.00965 12.5011 7.00153 11.5553 6.99506Z" fill="white"/>
</svg>
