<svg width="23" height="23" viewBox="0 0 23 23" fill="none" xmlns="http://www.w3.org/2000/svg">
<g clip-path="url(#clip0_2842_240)">
<path d="M22.6002 11.6999C22.6002 10.9224 22.5372 10.1408 22.4027 9.37598H11.6154V13.78H17.7928C17.5364 15.2004 16.7128 16.4569 15.5067 17.2553V20.1129H19.1921C21.3563 18.121 22.6002 15.1794 22.6002 11.6999Z" fill="#4285F4"/>
<path d="M11.6153 22.874C14.6998 22.874 17.3011 21.8613 19.1963 20.1131L15.5109 17.2555C14.4855 17.9531 13.1618 18.3481 11.6195 18.3481C8.63587 18.3481 6.10607 16.3352 5.19837 13.6289H1.39526V16.5747C3.33674 20.4367 7.29112 22.874 11.6153 22.874Z" fill="#34A853"/>
<path d="M5.19418 13.629C4.71512 12.2086 4.71512 10.6705 5.19418 9.25015V6.30432H1.39528C-0.226813 9.53591 -0.226813 13.3432 1.39528 16.5748L5.19418 13.629Z" fill="#FBBC04"/>
<path d="M11.6153 4.52667C13.2458 4.50146 14.8217 5.115 16.0025 6.24122L19.2677 2.97601C17.2002 1.03454 14.4561 -0.0328479 11.6153 0.0007707C7.29112 0.0007707 3.33674 2.43812 1.39526 6.30425L5.19416 9.25008C6.09766 6.53958 8.63166 4.52667 11.6153 4.52667Z" fill="#EA4335"/>
</g>
<defs>
<clipPath id="clip0_2842_240">
<rect width="22.8732" height="22.8732" fill="white"/>
</clipPath>
</defs>
</svg>
